<?xml version="1.0" encoding="UTF-8"?>
<svg id="Layer_2" data-name="Layer 2" xmlns="http://www.w3.org/2000/svg" xmlns:xlink="http://www.w3.org/1999/xlink" viewBox="0 0 252.16 252.16">
  <defs>
    <style>
      .cls-1 {
        fill: url(#radial-gradient);
      }

      .cls-2 {
        fill: url(#radial-gradient-2);
      }

      .cls-3 {
        fill: none;
        stroke: #ccc;
        stroke-miterlimit: 10;
        stroke-width: 17px;
      }
    </style>
    <radialGradient id="radial-gradient" cx="181.31" cy="127.11" fx="181.31" fy="127.11" r="76.34" gradientUnits="userSpaceOnUse">
      <stop offset=".44" stop-color="#fff"/>
      <stop offset=".56" stop-color="#f1f1f1"/>
      <stop offset=".84" stop-color="#d6d6d6"/>
      <stop offset="1" stop-color="#ccc"/>
    </radialGradient>
    <radialGradient id="radial-gradient-2" cx="70.87" fx="70.87" r="76.34" xlink:href="#radial-gradient"/>
  </defs>
  <g id="Layer_1-2" data-name="Layer 1">
    <path class="cls-1" d="M227.32,127.1c0,3.01-.14,5.98-.42,8.92-.57,6.12-1.71,12.09-3.39,17.83-1.81,6.21-4.25,12.18-7.23,17.83-2.17,4.12-4.63,8.07-7.36,11.82-1.5,2.07-3.08,4.07-4.74,6.02-4.11,4.83-8.69,9.26-13.66,13.24-2.01,1.61-4.08,3.13-6.21,4.58-3.88,2.65-7.94,5.04-12.19,7.14-5.83,2.89-11.99,5.25-18.41,7-5.94,1.62-12.08,2.74-18.41,3.29V29.45c6.32.54,12.47,1.66,18.41,3.29,6.42,1.76,12.58,4.11,18.41,7,4.25,2.1,8.32,4.48,12.19,7.13,2.13,1.45,4.2,2.98,6.21,4.58,4.98,3.99,9.56,8.42,13.67,13.25,1.66,1.94,3.24,3.95,4.74,6.02,2.74,3.75,5.19,7.7,7.36,11.81,2.98,5.65,5.42,11.62,7.23,17.83h-19.31c-2.31-6.35-5.43-12.34-9.24-17.83-1.39-2.02-2.88-3.97-4.45-5.85-3.67-4.41-7.82-8.42-12.36-11.97-1.95-1.53-3.95-2.97-6.04-4.32-5.67-3.68-11.85-6.71-18.41-8.94v151.32c6.56-2.23,12.73-5.26,18.41-8.94,2.08-1.34,4.08-2.78,6.02-4.31,4.55-3.55,8.7-7.57,12.38-11.98,1.57-1.88,3.06-3.83,4.45-5.85,3.81-5.5,6.92-11.48,9.24-17.83,2.08-5.68,3.51-11.64,4.21-17.83h-36.3v-17.83h54.8c.28,2.93.42,5.91.42,8.92Z"/>
    <path class="cls-2" d="M116.88,29.45v70.91h-18.4v-48.92c-6.56,2.23-12.73,5.26-18.41,8.94-2.08,1.35-4.09,2.79-6.04,4.32-4.55,3.55-8.7,7.57-12.37,11.98-1.57,1.88-3.05,3.82-4.44,5.84-3.81,5.5-6.93,11.48-9.24,17.83-2.08,5.67-3.51,11.64-4.21,17.83h73.11v106.58c-6.32-.55-12.47-1.66-18.4-3.29-6.42-1.76-12.58-4.11-18.41-7-4.25-2.1-8.32-4.48-12.19-7.14-2.14-1.45-4.21-2.98-6.22-4.59-4.98-3.98-9.56-8.41-13.66-13.24-1.66-1.94-3.24-3.95-4.74-6.01-2.73-3.76-5.19-7.71-7.36-11.83-2.98-5.65-5.42-11.61-7.24-17.83h19.32c2.32,6.35,5.43,12.33,9.24,17.83,1.39,2.02,2.87,3.96,4.44,5.84,3.68,4.42,7.84,8.44,12.39,11.99,1.94,1.53,3.95,2.97,6.02,4.31,5.67,3.68,11.85,6.71,18.41,8.94v-66.74H25.28c-.28-2.93-.42-5.91-.42-8.92s.14-5.98.42-8.92c.57-6.12,1.71-12.08,3.39-17.83,1.82-6.21,4.26-12.19,7.24-17.83,2.17-4.12,4.64-8.07,7.36-11.83,1.5-2.06,3.08-4.06,4.73-6,4.12-4.82,8.69-9.26,13.67-13.24,2.01-1.61,4.08-3.14,6.22-4.59,3.87-2.65,7.94-5.03,12.19-7.13,5.83-2.89,11.99-5.25,18.41-7,5.93-1.62,12.08-2.74,18.4-3.29Z"/>
    <circle class="cls-3" cx="126.08" cy="126.08" r="117.58"/>
  </g>
</svg>